HIERARCHY
ROOT hip
{
  OFFSET 0 0 0
  CHANNELS 6 Xposition Yposition Zposition Zrotation Yrotation Xrotation
  JOINT abdomen
  {
    OFFSET 0 20.6881 -0.73152
    CHANNELS 3 Zrotation Xrotation Yrotation
    JOINT chest
    {
      OFFSET 0 11.7043 -0.48768
      CHANNELS 3 Zrotation Xrotation Yrotation
      JOINT neck
      {
        OFFSET 0 22.1894 -2.19456
        CHANNELS 3 Zrotation Xrotation Yrotation
        JOINT head
        {
          OFFSET -0.24384 7.07133 1.2192
          CHANNELS 3 Zrotation Xrotation Yrotation
          JOINT leftEye
          {
            OFFSET 4.14528 8.04674 8.04672
            CHANNELS 3 Zrotation Xrotation Yrotation
            End Site
            {
              OFFSET 1 0 0
            }
          }
          JOINT rightEye
          {
            OFFSET -3.6576 8.04674 8.04672
            CHANNELS 3 Zrotation Xrotation Yrotation
            End Site
            {
              OFFSET 1 0 0
            }
          }
        }
      }
      JOINT rCollar
      {
        OFFSET -2.68224 19.2634 -4.8768
        CHANNELS 3 Zrotation Xrotation Yrotation
        JOINT rShldr
        {
          OFFSET -8.77824 -1.95073 1.46304
          CHANNELS 3 Zrotation Xrotation Yrotation
          JOINT rForeArm
          {
            OFFSET -28.1742 -1.7115 0.48768
            CHANNELS 3 Zrotation Xrotation Yrotation
            JOINT rHand
            {
              OFFSET -22.5879 0.773209 7.07136
              CHANNELS 3 Zrotation Xrotation Yrotation
              JOINT rThumb1
              {
                OFFSET -1.2192 -0.487915 3.41376
                CHANNELS 3 Zrotation Xrotation Yrotation
                JOINT rThumb2
                {
                  OFFSET -3.37035 -0.52449 3.41376
                  CHANNELS 3 Zrotation Xrotation Yrotation
                  End Site
                  {
                    OFFSET -1.78271 -1.18214 1.43049
                  }
                }
              }
              JOINT rIndex1
              {
                OFFSET -7.75947 0.938293 5.60832
                CHANNELS 3 Zrotation Xrotation Yrotation
                JOINT rIndex2
                {
                  OFFSET -2.54057 -0.884171 1.56538
                  CHANNELS 3 Zrotation Xrotation Yrotation
                  End Site
                  {
                    OFFSET -1.62519 -0.234802 1.16502
                  }
                }
              }
              JOINT rMid1
              {
                OFFSET -8.24714 1.18213 3.41376
                CHANNELS 3 Zrotation Xrotation Yrotation
                JOINT rMid2
                {
                  OFFSET -3.10165 -0.590103 1.0647
                  CHANNELS 3 Zrotation Xrotation Yrotation
                  End Site
                  {
                    OFFSET -2.48547 -0.328903 0.83742
                  }
                }
              }
              JOINT rRing1
              {
                OFFSET -8.82822 0.546677 1.51678
                CHANNELS 3 Zrotation Xrotation Yrotation
                JOINT rRing2
                {
                  OFFSET -2.60934 -0.819778 -0.0198488
                  CHANNELS 3 Zrotation Xrotation Yrotation
                  End Site
                  {
                    OFFSET -2.33842 -0.294052 0.168128
                  }
                }
              }
              JOINT rPinky1
              {
                OFFSET -8.27202 -0.0477905 -0.4584
                CHANNELS 3 Zrotation Xrotation Yrotation
                JOINT rPinky2
                {
                  OFFSET -1.82734 -0.647385 -0.700984
                  CHANNELS 3 Zrotation Xrotation Yrotation
                  End Site
                  {
                    OFFSET -1.69225 -0.51767 -0.607171
                  }
                }
              }
            }
          }
        }
      }
      JOINT lCollar
      {
        OFFSET 2.68224 19.2634 -4.8768
        CHANNELS 3 Zrotation Xrotation Yrotation
        JOINT lShldr
        {
          OFFSET 8.77824 -1.95073 1.46304
          CHANNELS 3 Zrotation Xrotation Yrotation
          JOINT lForeArm
          {
            OFFSET 28.1742 -1.7115 0.48768
            CHANNELS 3 Zrotation Xrotation Yrotation
            JOINT lHand
            {
              OFFSET 22.5879 0.773209 7.07136
              CHANNELS 3 Zrotation Xrotation Yrotation
              JOINT lThumb1
              {
                OFFSET 1.2192 -0.487915 3.41376
                CHANNELS 3 Zrotation Xrotation Yrotation
                JOINT lThumb2
                {
                  OFFSET 3.37035 -0.52449 3.41376
                  CHANNELS 3 Zrotation Xrotation Yrotation
                  End Site
                  {
                    OFFSET 1.78271 -1.18214 1.43049
                  }
                }
              }
              JOINT lIndex1
              {
                OFFSET 7.75947 0.938293 5.60832
                CHANNELS 3 Zrotation Xrotation Yrotation
                JOINT lIndex2
                {
                  OFFSET 2.54057 -0.884171 1.56538
                  CHANNELS 3 Zrotation Xrotation Yrotation
                  End Site
                  {
                    OFFSET 1.62519 -0.234802 1.16502
                  }
                }
              }
              JOINT lMid1
              {
                OFFSET 8.24714 1.18213 3.41376
                CHANNELS 3 Zrotation Xrotation Yrotation
                JOINT lMid2
                {
                  OFFSET 3.10165 -0.590103 1.0647
                  CHANNELS 3 Zrotation Xrotation Yrotation
                  End Site
                  {
                    OFFSET 2.48547 -0.328903 0.83742
                  }
                }
              }
              JOINT lRing1
              {
                OFFSET 8.82822 0.546677 1.51678
                CHANNELS 3 Zrotation Xrotation Yrotation
                JOINT lRing2
                {
                  OFFSET 2.60934 -0.819778 -0.0198488
                  CHANNELS 3 Zrotation Xrotation Yrotation
                  End Site
                  {
                    OFFSET 2.33842 -0.294052 0.168128
                  }
                }
              }
              JOINT lPinky1
              {
                OFFSET 8.27202 -0.0477905 -0.4584
                CHANNELS 3 Zrotation Xrotation Yrotation
                JOINT lPinky2
                {
                  OFFSET 1.82734 -0.647385 -0.700984
                  CHANNELS 3 Zrotation Xrotation Yrotation
                  End Site
                  {
                    OFFSET 1.69225 -0.51767 -0.607171
                  }
                }
              }
            }
          }
        }
      }
    }
  }
  JOINT rButtock
  {
    OFFSET -8.77824 4.35084 1.2192
    CHANNELS 3 Zrotation Xrotation Yrotation
    JOINT rThigh
    {
      OFFSET 0 -1.70687 -2.19456
      CHANNELS 3 Zrotation Xrotation Yrotation
      JOINT rShin
      {
        OFFSET 0 -36.8199 0.73152
        CHANNELS 3 Zrotation Xrotation Yrotation
        JOINT rFoot
        {
          OFFSET 0.73152 -45.1104 -5.12064
          CHANNELS 3 Zrotation Xrotation Yrotation
          End Site
          {
            OFFSET -1.1221 -3.69964 12.103
          }
        }
      }
    }
  }
  JOINT lButtock
  {
    OFFSET 8.77824 4.35084 1.2192
    CHANNELS 3 Zrotation Xrotation Yrotation
    JOINT lThigh
    {
      OFFSET 0 -1.70687 -2.19456
      CHANNELS 3 Zrotation Xrotation Yrotation
      JOINT lShin
      {
        OFFSET 0 -36.8199 0.73152
        CHANNELS 3 Zrotation Xrotation Yrotation
        JOINT lFoot
        {
          OFFSET -0.73152 -45.1104 -5.12064
          CHANNELS 3 Zrotation Xrotation Yrotation
          End Site
          {
            OFFSET 1.1221 -3.69964 12.103
          }
        }
      }
    }
  }
}
MOTION
Frames:	4
Frame Time:	0.00833333
178.338 84.7658 41.6293 0.0 0.0 0.0 -0.385199 -0.00168812 -0.0109959 -0.106235 -0.00256709 -0.018405 4.56564e-15 0.0 -8.69683e-17 1.37068e-14 3.18055e-15 -2.57799e-16 -0.0 0.0 0.0 -0.0 0.0 0.0 2.38418e-15 2.52363e-18 1.49089e-16 4.88817e-14 2.98177e-16 -1.98785e-16 8.31914e-13 -2.47089e-13 -3.18055e-15 9.53061e-12 2.54643e-13 -1.84472e-13 2.24759e-11 1.51703e-14 -3.94389e-13 3.88123e-11 2.54444e-14 -6.67121e-13 2.24794e-11 1.66979e-14 -3.97569e-13 7.73091 5.47488 0.417314 2.24758e-11 1.47101e-14 -3.81667e-13 2.90554 0.965183 0.102902 2.24809e-11 1.50082e-14 -3.83257e-13 10.2786 0.731801 0.0259123 2.24688e-11 1.78906e-14 -3.72125e-13 2.22167 -0.733487 -0.20892 2.18801e-15 2.91188e-18 -2.48481e-16 4.69592e-14 1.86361e-16 -1.19271e-15 8.34051e-13 2.50469e-13 -6.04305e-14 9.52216e-12 -2.40753e-13 -1.04958e-13 2.24686e-11 2.10203e-14 -3.81667e-13 3.88115e-11 3.18055e-14 -6.55194e-13 2.2467e-11 2.10712e-14 -3.72125e-13 -7.73091 5.47488 -0.417314 2.24705e-11 2.05742e-14 -3.81667e-13 -2.90554 0.965183 -0.102902 2.24622e-11 2.08724e-14 -3.82462e-13 -10.2786 0.731801 -0.0259123 2.24768e-11 2.38542e-14 -3.94389e-13 -2.22167 -0.733487 0.20892 -2.03217e-16 0.0 -3.88251e-19 0.22169 -2.58356 -0.0280818 -0.00748988 -0.872637 -0.0651426 -0.513153 3.45577 0.129353 2.03217e-16 0.0 3.88251e-19 -0.807735 -4.07085 0.0653899 0.00325547 1.8214 0.0244293 0.517669 2.24911 -0.105175
173.533 83.7228 35.4304 -113.704 -89.2502 120.292 0.299196 -1.16225 -0.569982 0.77936 -0.891656 -0.165713 -1.45915 0.207626 -0.791511 3.12612 -4.73073 -0.731495 -0.0 0.0 0.0 -0.0 0.0 0.0 1.46568e-14 1.51443e-13 -2.08984e-14 17.2705 1.92822 1.98143 -5.53543 -2.84773 8.25428 0.00195419 0.980813 0.137771 -6.79918e-10 -1.47579e-10 -6.47025e-10 -1.17863e-09 -2.59975e-10 -1.11575e-09 -6.79915e-10 -1.47575e-10 -6.47033e-10 7.73091 5.47488 0.417314 -6.79919e-10 -1.47578e-10 -6.47017e-10 2.90554 0.965183 0.102902 -6.79913e-10 -1.47577e-10 -6.47019e-10 10.2786 0.731801 0.0259123 -6.79922e-10 -1.47576e-10 -6.4701e-10 2.22167 -0.733487 -0.20892 1.45181e-14 1.51443e-13 -2.12517e-14 -19.2081 4.43452 -4.66994 6.15728 -3.33408 -8.96317 -0.0381172 4.3336 -0.602775 6.59007e-10 4.06451e-11 3.79352e-10 1.14368e-09 6.46595e-11 6.46572e-10 6.59006e-10 4.06467e-11 3.79363e-10 -7.73091 5.47488 -0.417314 6.5901e-10 4.06465e-11 3.79353e-10 -2.90554 0.965183 -0.102902 6.59e-10 4.06468e-11 3.79353e-10 -10.2786 0.731801 -0.0259123 6.59013e-10 4.06487e-11 3.79342e-10 -2.22167 -0.733487 0.20892 -2.03217e-16 0.0 -3.88251e-19 -1.33528 -11.6623 -0.138902 -0.00576245 1.69385 -0.0237276 -0.776449 1.58323 -5.71891 2.03217e-16 0.0 3.88251e-19 -1.48724 -3.37384 -1.1025 -0.00296831 4.49251 -0.0497603 0.523865 -1.87032 0.163483
173.011 83.6507 35.4387 -107.958 -89.3797 114.758 1.00126 -2.39459 -1.16105 1.70914 -1.82515 -0.321729 -2.9941 0.423586 -1.62564 6.29821 -9.72331 -1.51689 -0.0 0.0 0.0 -0.0 0.0 0.0 2.83574e-14 3.15187e-13 -4.39842e-14 35.3633 3.96776 4.09443 -10.5119 -5.6675 17.0559 -0.00110967 2.01528 0.283217 -1.44936e-09 -3.12214e-10 -1.34984e-09 -2.51227e-09 -5.49892e-10 -2.32767e-09 -1.44936e-09 -3.12209e-10 -1.34985e-09 7.73091 5.47488 0.417314 -1.44936e-09 -3.12212e-10 -1.34983e-09 2.90554 0.965183 0.102902 -1.44935e-09 -3.12211e-10 -1.34983e-09 10.2786 0.731801 0.0259123 -1.44936e-09 -3.12212e-10 -1.34983e-09 2.22167 -0.733487 -0.20892 2.82795e-14 3.15187e-13 -4.42886e-14 -38.6999 9.00665 -9.71132 11.5433 -6.58453 -18.5309 0.0218803 8.92162 -1.25274 1.35553e-09 8.38238e-11 7.99722e-10 2.35274e-09 1.3312e-10 1.36318e-09 1.35553e-09 8.3827e-11 7.99734e-10 -7.73091 5.47488 -0.417314 1.35553e-09 8.38271e-11 7.99724e-10 -2.90554 0.965183 -0.102902 1.35552e-09 8.38275e-11 7.99723e-10 -10.2786 0.731801 -0.0259123 1.35553e-09 8.38283e-11 7.99715e-10 -2.22167 -0.733487 0.20892 -2.03217e-16 0.0 -3.88251e-19 -3.02329 -21.2209 -0.243303 -0.00790574 4.36693 0.0195743 -1.47001 -0.375902 -11.9306 2.03217e-16 0.0 3.88251e-19 -2.16676 -2.64578 -2.34003 -0.00182251 7.30721 -0.128134 0.572263 -6.20696 0.449122
172.498 83.5482 35.4301 -109.427 -89.4855 116.466 1.59995 -3.48204 -1.69072 2.53682 -2.66976 -0.460767 -4.36026 0.622404 -2.37466 9.00639 -14.1828 -2.2558 -0.0 0.0 0.0 -0.0 0.0 0.0 3.92021e-14 4.54325e-13 -6.29934e-14 51.4106 5.75692 5.97115 -14.2108 -7.83542 24.981 -0.00830379 2.94237 0.413799 -2.08471e-09 -4.42766e-10 -1.94029e-09 -3.61352e-09 -7.79975e-10 -3.3459e-09 -2.0847e-09 -4.4276e-10 -1.9403e-09 7.73091 5.47488 0.417314 -2.08471e-09 -4.42762e-10 -1.94029e-09 2.90554 0.965183 0.102902 -2.0847e-09 -4.42762e-10 -1.94029e-09 10.2786 0.731801 0.0259123 -2.0847e-09 -4.42763e-10 -1.94029e-09 2.22167 -0.733487 -0.20892 3.91783e-14 4.54324e-13 -6.32582e-14 -55.4322 12.9461 -14.3398 15.438 -9.02482 -27.2077 0.165266 12.995 -1.85056 1.93208e-09 1.21893e-10 1.13882e-09 3.35343e-09 1.93915e-10 1.94103e-09 1.93208e-09 1.21898e-10 1.13883e-09 -7.73091 5.47488 -0.417314 1.93209e-09 1.21898e-10 1.13882e-09 -2.90554 0.965183 -0.102902 1.93208e-09 1.21899e-10 1.13882e-09 -10.2786 0.731801 -0.0259123 1.93208e-09 1.21898e-10 1.13882e-09 -2.22167 -0.733487 0.20892 -2.03217e-16 0.0 -3.88251e-19 -4.56926 -29.8192 -0.405714 -0.0134734 6.82682 0.0595408 -2.4342 -2.04016 -17.4198 2.03217e-16 0.0 3.88251e-19 -2.76099 -1.97814 -3.43428 0.00560272 9.83467 -0.200604 0.653373 -10.1084 0.711418
